# xmcd
#
# Track frame offsets: 
#        150
#        8460
#        19047
#        30026
#        40894
#        51624
#        62847
#        77026
#        85762
#        96862
#        107675
#        117515
#
# Disc length: 1721 seconds
#
# Revision: 0
# Processed by: cddbd v1.5.2PL0 Copyright (c) Steve Scherf et al.
# Submitted via: ExactAudioCopy v0.99pb4
#
DISCID=8906b70c
DTITLE=Dee Lannon and The Dare-Devil Dillies - Dance and Sing With
DYEAR=2001
DGENRE=Country
TTITLE0=Skating On Thin Ice
TTITLE1=Needle In The Haystack
TTITLE2=Big Skeeter Hop
TTITLE3=It's All Up To You
TTITLE4=Tall Man
TTITLE5=Choose Me
TTITLE6=Dare-Devil Dillies
TTITLE7=Turn The Cards Slowly
TTITLE8=Dance and Sing
TTITLE9=Wild Wild Young Men
TTITLE10=Whoopsydaisy
TTITLE11=Too Late
EXTD=
EXTT0=
EXTT1=
EXTT2=
EXTT3=
EXTT4=
EXTT5=
EXTT6=
EXTT7=
EXTT8=
EXTT9=
EXTT10=
EXTT11=
PLAYORDER=
